<?xml version="1.0" standalone="yes"?><svg xmlns="http://www.w3.org/2000/svg" version="1.1" width="330" height="330" shape-rendering="crispEdges"><rect x="0" y="0" width="330" height="330" fill="#ffffff"/><path fill="#21ABA5" d="M40 40h10v10H40V40M50 40h10v10H50V40M60 40h10v10H60V40M70 40h10v10H70V40M80 40h10v10H80V40M90 40h10v10H90V40M100 40h10v10H100V40M120 40h10v10H120V40M130 40h10v10H130V40M140 40h10v10H140V40M180 40h10v10H180V40M190 40h10v10H190V40M200 40h10v10H200V40M220 40h10v10H220V40M230 40h10v10H230V40M240 40h10v10H240V40M250 40h10v10H250V40M260 40h10v10H260V40M270 40h10v10H270V40M280 40h10v10H280V40M40 50h10v10H40V50M100 50h10v10H100V50M130 50h10v10H130V50M140 50h10v10H140V50M150 50h10v10H150V50M160 50h10v10H160V50M170 50h10v10H170V50M180 50h10v10H180V50M200 50h10v10H200V50M220 50h10v10H220V50M280 50h10v10H280V50M40 60h10v10H40V60M60 60h10v10H60V60M70 60h10v10H70V60M80 60h10v10H80V60M100 60h10v10H100V60M120 60h10v10H120V60M130 60h10v10H130V60M180 60h10v10H180V60M190 60h10v10H190V60M220 60h10v10H220V60M240 60h10v10H240V60M250 60h10v10H250V60M260 60h10v10H260V60M280 60h10v10H280V60M40 70h10v10H40V70M60 70h10v10H60V70M70 70h10v10H70V70M80 70h10v10H80V70M100 70h10v10H100V70M140 70h10v10H140V70M180 70h10v10H180V70M220 70h10v10H220V70M240 70h10v10H240V70M250 70h10v10H250V70M260 70h10v10H260V70M280 70h10v10H280V70M40 80h10v10H40V80M60 80h10v10H60V80M70 80h10v10H70V80M80 80h10v10H80V80M100 80h10v10H100V80M150 80h10v10H150V80M160 80h10v10H160V80M170 80h10v10H170V80M180 80h10v10H180V80M220 80h10v10H220V80M240 80h10v10H240V80M250 80h10v10H250V80M260 80h10v10H260V80M280 80h10v10H280V80M40 90h10v10H40V90M100 90h10v10H100V90M120 90h10v10H120V90M150 90h10v10H150V90M200 90h10v10H200V90M220 90h10v10H220V90M280 90h10v10H280V90M40 100h10v10H40V100M50 100h10v10H50V100M60 100h10v10H60V100M70 100h10v10H70V100M80 100h10v10H80V100M90 100h10v10H90V100M100 100h10v10H100V100M120 100h10v10H120V100M140 100h10v10H140V100M160 100h10v10H160V100M180 100h10v10H180V100M200 100h10v10H200V100M220 100h10v10H220V100M230 100h10v10H230V100M240 100h10v10H240V100M250 100h10v10H250V100M260 100h10v10H260V100M270 100h10v10H270V100M280 100h10v10H280V100M140 110h10v10H140V110M150 110h10v10H150V110M180 110h10v10H180V110M200 110h10v10H200V110M40 120h10v10H40V120M60 120h10v10H60V120M100 120h10v10H100V120M110 120h10v10H110V120M130 120h10v10H130V120M160 120h10v10H160V120M170 120h10v10H170V120M180 120h10v10H180V120M200 120h10v10H200V120M230 120h10v10H230V120M260 120h10v10H260V120M280 120h10v10H280V120M40 130h10v10H40V130M60 130h10v10H60V130M70 130h10v10H70V130M80 130h10v10H80V130M140 130h10v10H140V130M150 130h10v10H150V130M160 130h10v10H160V130M170 130h10v10H170V130M180 130h10v10H180V130M190 130h10v10H190V130M200 130h10v10H200V130M220 130h10v10H220V130M260 130h10v10H260V130M280 130h10v10H280V130M40 140h10v10H40V140M50 140h10v10H50V140M70 140h10v10H70V140M80 140h10v10H80V140M90 140h10v10H90V140M100 140h10v10H100V140M110 140h10v10H110V140M120 140h10v10H120V140M130 140h10v10H130V140M140 140h10v10H140V140M150 140h10v10H150V140M190 140h10v10H190V140M210 140h10v10H210V140M220 140h10v10H220V140M260 140h10v10H260V140M280 140h10v10H280V140M40 150h10v10H40V150M60 150h10v10H60V150M80 150h10v10H80V150M90 150h10v10H90V150M150 150h10v10H150V150M160 150h10v10H160V150M170 150h10v10H170V150M190 150h10v10H190V150M200 150h10v10H200V150M250 150h10v10H250V150M50 160h10v10H50V160M60 160h10v10H60V160M100 160h10v10H100V160M110 160h10v10H110V160M120 160h10v10H120V160M140 160h10v10H140V160M160 160h10v10H160V160M170 160h10v10H170V160M200 160h10v10H200V160M220 160h10v10H220V160M50 170h10v10H50V170M70 170h10v10H70V170M110 170h10v10H110V170M120 170h10v10H120V170M130 170h10v10H130V170M140 170h10v10H140V170M160 170h10v10H160V170M190 170h10v10H190V170M200 170h10v10H200V170M220 170h10v10H220V170M230 170h10v10H230V170M260 170h10v10H260V170M280 170h10v10H280V170M40 180h10v10H40V180M50 180h10v10H50V180M70 180h10v10H70V180M90 180h10v10H90V180M100 180h10v10H100V180M110 180h10v10H110V180M120 180h10v10H120V180M140 180h10v10H140V180M160 180h10v10H160V180M170 180h10v10H170V180M180 180h10v10H180V180M190 180h10v10H190V180M210 180h10v10H210V180M220 180h10v10H220V180M240 180h10v10H240V180M250 180h10v10H250V180M260 180h10v10H260V180M280 180h10v10H280V180M60 190h10v10H60V190M120 190h10v10H120V190M130 190h10v10H130V190M150 190h10v10H150V190M160 190h10v10H160V190M180 190h10v10H180V190M190 190h10v10H190V190M210 190h10v10H210V190M240 190h10v10H240V190M250 190h10v10H250V190M270 190h10v10H270V190M40 200h10v10H40V200M50 200h10v10H50V200M70 200h10v10H70V200M90 200h10v10H90V200M100 200h10v10H100V200M170 200h10v10H170V200M180 200h10v10H180V200M190 200h10v10H190V200M200 200h10v10H200V200M210 200h10v10H210V200M220 200h10v10H220V200M230 200h10v10H230V200M240 200h10v10H240V200M250 200h10v10H250V200M280 200h10v10H280V200M120 210h10v10H120V210M140 210h10v10H140V210M170 210h10v10H170V210M180 210h10v10H180V210M190 210h10v10H190V210M200 210h10v10H200V210M240 210h10v10H240V210M260 210h10v10H260V210M40 220h10v10H40V220M50 220h10v10H50V220M60 220h10v10H60V220M70 220h10v10H70V220M80 220h10v10H80V220M90 220h10v10H90V220M100 220h10v10H100V220M120 220h10v10H120V220M130 220h10v10H130V220M150 220h10v10H150V220M200 220h10v10H200V220M220 220h10v10H220V220M240 220h10v10H240V220M260 220h10v10H260V220M280 220h10v10H280V220M40 230h10v10H40V230M100 230h10v10H100V230M140 230h10v10H140V230M170 230h10v10H170V230M190 230h10v10H190V230M200 230h10v10H200V230M240 230h10v10H240V230M250 230h10v10H250V230M270 230h10v10H270V230M40 240h10v10H40V240M60 240h10v10H60V240M70 240h10v10H70V240M80 240h10v10H80V240M100 240h10v10H100V240M130 240h10v10H130V240M150 240h10v10H150V240M160 240h10v10H160V240M170 240h10v10H170V240M190 240h10v10H190V240M200 240h10v10H200V240M210 240h10v10H210V240M220 240h10v10H220V240M230 240h10v10H230V240M240 240h10v10H240V240M270 240h10v10H270V240M280 240h10v10H280V240M40 250h10v10H40V250M60 250h10v10H60V250M70 250h10v10H70V250M80 250h10v10H80V250M100 250h10v10H100V250M140 250h10v10H140V250M160 250h10v10H160V250M190 250h10v10H190V250M210 250h10v10H210V250M240 250h10v10H240V250M270 250h10v10H270V250M40 260h10v10H40V260M60 260h10v10H60V260M70 260h10v10H70V260M80 260h10v10H80V260M100 260h10v10H100V260M120 260h10v10H120V260M130 260h10v10H130V260M140 260h10v10H140V260M160 260h10v10H160V260M170 260h10v10H170V260M180 260h10v10H180V260M200 260h10v10H200V260M240 260h10v10H240V260M250 260h10v10H250V260M270 260h10v10H270V260M280 260h10v10H280V260M40 270h10v10H40V270M100 270h10v10H100V270M140 270h10v10H140V270M150 270h10v10H150V270M160 270h10v10H160V270M180 270h10v10H180V270M200 270h10v10H200V270M210 270h10v10H210V270M40 280h10v10H40V280M50 280h10v10H50V280M60 280h10v10H60V280M70 280h10v10H70V280M80 280h10v10H80V280M90 280h10v10H90V280M100 280h10v10H100V280M120 280h10v10H120V280M140 280h10v10H140V280M170 280h10v10H170V280M180 280h10v10H180V280M200 280h10v10H200V280M230 280h10v10H230V280M240 280h10v10H240V280M250 280h10v10H250V280M280 280h10v10H280V280"/></svg>